<?xml version="1.0" encoding="UTF-8"?>
<svg xmlns="http://www.w3.org/2000/svg" xmlns:xlink="http://www.w3.org/1999/xlink" width="160px" height="156px" viewBox="0 0 159 156" version="1.1">
<g id="surface1">
<path style=" stroke:none;fill-rule:nonzero;fill:rgb(94.901961%,94.901961%,94.901961%);fill-opacity:1;" d="M 100.882812 35.09375 L 58.0625 35.09375 C 56.03125 35.097656 54.386719 36.753906 54.382812 38.796875 L 54.382812 134.53125 L 53.890625 134.683594 L 43.386719 137.917969 C 42.351562 138.234375 41.253906 137.648438 40.9375 136.605469 L 9.691406 33.9375 C 9.375 32.894531 9.957031 31.789062 10.992188 31.46875 L 27.179688 26.484375 L 74.109375 12.035156 L 90.296875 7.046875 C 90.792969 6.894531 91.332031 6.945312 91.789062 7.191406 C 92.25 7.4375 92.59375 7.855469 92.746094 8.355469 L 100.734375 34.601562 Z M 100.882812 35.09375 "/>
<path style=" stroke:none;fill-rule:nonzero;fill:rgb(24.705882%,23.921569%,33.72549%);fill-opacity:1;" d="M 110.226562 34.601562 L 100.601562 2.96875 C 99.925781 0.753906 97.59375 -0.492188 95.390625 0.1875 L 72.632812 7.195312 L 25.710938 21.644531 L 2.949219 28.65625 C 0.75 29.335938 -0.488281 31.679688 0.183594 33.894531 L 33.082031 141.992188 C 33.621094 143.757812 35.238281 144.960938 37.070312 144.960938 C 37.484375 144.960938 37.898438 144.898438 38.292969 144.777344 L 53.890625 139.972656 L 54.382812 139.820312 L 54.382812 139.304688 L 53.890625 139.457031 L 38.148438 144.304688 C 36.203125 144.902344 34.148438 143.804688 33.550781 141.851562 L 0.652344 33.75 C 0.367188 32.8125 0.464844 31.796875 0.921875 30.929688 C 1.378906 30.0625 2.160156 29.414062 3.09375 29.128906 L 25.855469 22.117188 L 72.777344 7.667969 L 95.535156 0.65625 C 95.886719 0.550781 96.25 0.496094 96.617188 0.496094 C 98.234375 0.5 99.660156 1.558594 100.132812 3.113281 L 109.714844 34.601562 L 109.867188 35.09375 L 110.375 35.09375 Z M 110.226562 34.601562 "/>
<path style=" stroke:none;fill-rule:nonzero;fill:rgb(15.294118%,17.647059%,35.686275%);fill-opacity:1;" d="M 30.101562 31.550781 C 29.132812 31.550781 28.273438 30.914062 27.988281 29.980469 L 24.828125 19.59375 C 24.472656 18.421875 25.128906 17.179688 26.292969 16.820312 L 69.464844 3.523438 C 70.628906 3.167969 71.863281 3.824219 72.222656 5 L 75.382812 15.382812 C 75.738281 16.554688 75.082031 17.796875 73.917969 18.15625 L 30.746094 31.453125 C 30.539062 31.519531 30.320312 31.550781 30.101562 31.550781 Z M 30.101562 31.550781 "/>
<path style=" stroke:none;fill-rule:nonzero;fill:rgb(15.294118%,17.647059%,35.686275%);fill-opacity:1;" d="M 51.566406 6.160156 C 51.566406 8.886719 49.367188 11.097656 46.65625 11.097656 C 43.949219 11.097656 41.75 8.886719 41.75 6.160156 C 41.75 3.433594 43.949219 1.222656 46.65625 1.222656 C 49.367188 1.222656 51.566406 3.433594 51.566406 6.160156 Z M 51.566406 6.160156 "/>
<path style=" stroke:none;fill-rule:nonzero;fill:rgb(100%,100%,100%);fill-opacity:1;" d="M 49.765625 6.160156 C 49.765625 7.886719 48.375 9.285156 46.65625 9.285156 C 44.941406 9.285156 43.550781 7.886719 43.550781 6.160156 C 43.550781 4.433594 44.941406 3.035156 46.65625 3.035156 C 48.375 3.035156 49.765625 4.433594 49.765625 6.160156 Z M 49.765625 6.160156 "/>
<path style=" stroke:none;fill-rule:nonzero;fill:rgb(90.196078%,90.196078%,90.196078%);fill-opacity:1;" d="M 147.867188 143.699219 L 64.933594 143.699219 C 63.78125 143.699219 62.851562 142.761719 62.847656 141.601562 L 62.847656 41.632812 C 62.847656 40.476562 63.78125 39.539062 64.933594 39.535156 L 147.867188 39.535156 C 149.019531 39.539062 149.953125 40.476562 149.953125 41.632812 L 149.953125 141.601562 C 149.953125 142.761719 149.019531 143.699219 147.867188 143.699219 Z M 147.867188 143.699219 "/>
<path style=" stroke:none;fill-rule:nonzero;fill:rgb(24.705882%,23.921569%,33.72549%);fill-opacity:1;" d="M 109.714844 34.601562 L 58.0625 34.601562 C 55.761719 34.601562 53.894531 36.480469 53.890625 38.796875 L 53.890625 139.457031 L 54.382812 139.304688 L 54.382812 38.796875 C 54.386719 36.753906 56.03125 35.097656 58.0625 35.09375 L 109.867188 35.09375 Z M 154.738281 34.601562 L 58.0625 34.601562 C 55.761719 34.601562 53.894531 36.480469 53.890625 38.796875 L 53.890625 151.847656 C 53.894531 154.164062 55.761719 156.039062 58.0625 156.042969 L 154.738281 156.042969 C 157.042969 156.039062 158.90625 154.164062 158.910156 151.847656 L 158.910156 38.796875 C 158.90625 36.480469 157.042969 34.601562 154.738281 34.601562 Z M 158.421875 151.847656 C 158.417969 153.890625 156.769531 155.546875 154.738281 155.550781 L 58.0625 155.550781 C 56.03125 155.546875 54.386719 153.890625 54.382812 151.847656 L 54.382812 38.796875 C 54.386719 36.753906 56.03125 35.097656 58.0625 35.09375 L 154.738281 35.09375 C 156.769531 35.097656 158.417969 36.753906 158.421875 38.796875 Z M 158.421875 151.847656 "/>
<path style=" stroke:none;fill-rule:nonzero;fill:rgb(15.294118%,17.647059%,35.686275%);fill-opacity:1;" d="M 128.976562 45.460938 L 83.828125 45.460938 C 82.609375 45.460938 81.621094 44.464844 81.617188 43.238281 L 81.617188 32.378906 C 81.621094 31.152344 82.609375 30.160156 83.828125 30.15625 L 128.976562 30.15625 C 130.195312 30.160156 131.183594 31.152344 131.183594 32.378906 L 131.183594 43.238281 C 131.183594 44.464844 130.195312 45.460938 128.976562 45.460938 Z M 128.976562 45.460938 "/>
<path style=" stroke:none;fill-rule:nonzero;fill:rgb(15.294118%,17.647059%,35.686275%);fill-opacity:1;" d="M 111.308594 25.960938 C 111.308594 28.6875 109.113281 30.898438 106.402344 30.898438 C 103.691406 30.898438 101.492188 28.6875 101.492188 25.960938 C 101.492188 23.234375 103.691406 21.023438 106.402344 21.023438 C 109.113281 21.023438 111.308594 23.234375 111.308594 25.960938 Z M 111.308594 25.960938 "/>
<path style=" stroke:none;fill-rule:nonzero;fill:rgb(100%,100%,100%);fill-opacity:1;" d="M 109.390625 25.960938 C 109.390625 27.621094 108.050781 28.96875 106.402344 28.96875 C 104.75 28.96875 103.414062 27.621094 103.414062 25.960938 C 103.414062 24.300781 104.75 22.953125 106.402344 22.953125 C 108.050781 22.953125 109.390625 24.300781 109.390625 25.960938 Z M 109.390625 25.960938 "/>
</g>
</svg>
